<svg width="26" height="28" viewBox="0 0 26 28" fill="none" xmlns="http://www.w3.org/2000/svg">
<mask id="path-1-inside-1_0_187" fill="white">
<path d="M22.0821 0.0738986C24.3336 0.223079 26.0649 2.17885 25.6226 4.39151C24.5529 9.74197 22.0909 14.7431 18.4533 18.8737C14.8156 23.0042 10.1658 26.0786 4.99346 27.816C2.85446 28.5344 0.695549 27.0643 0.262974 24.8497L0.0757182 23.891C-0.356853 21.6764 1.11026 19.5652 3.20691 18.7312C6.40879 17.4576 9.28542 15.4421 11.5879 12.8276C13.8905 10.2131 15.5262 7.10477 16.3848 3.76759C16.9471 1.58233 18.856 -0.139864 21.1075 0.00931622L22.0821 0.0738986Z"/>
</mask>
<path d="M22.0821 0.0738986C24.3336 0.223079 26.0649 2.17885 25.6226 4.39151C24.5529 9.74197 22.0909 14.7431 18.4533 18.8737C14.8156 23.0042 10.1658 26.0786 4.99346 27.816C2.85446 28.5344 0.695549 27.0643 0.262974 24.8497L0.0757182 23.891C-0.356853 21.6764 1.11026 19.5652 3.20691 18.7312C6.40879 17.4576 9.28542 15.4421 11.5879 12.8276C13.8905 10.2131 15.5262 7.10477 16.3848 3.76759C16.9471 1.58233 18.856 -0.139864 21.1075 0.00931622L22.0821 0.0738986Z" fill="#DBE6CF" stroke="white" stroke-width="2" mask="url(#path-1-inside-1_0_187)"/>
</svg>
