<svg width="50" height="61" viewBox="0 0 50 61" fill="none" xmlns="http://www.w3.org/2000/svg">
<mask id="path-1-inside-1_0_154" fill="white">
<path d="M36.2391 56.3711C36.7175 58.5278 35.3555 60.692 33.1547 60.8843C29.313 61.2199 25.4299 60.8249 21.7139 59.7071C16.7166 58.2038 12.1886 55.4434 8.56295 51.69C4.93735 47.9366 2.33545 43.3157 1.00613 38.2693C-0.323189 33.2229 -0.335464 27.9198 0.970482 22.8673C2.27643 17.8148 4.85691 13.1819 8.4651 9.41178C12.0733 5.64162 16.5885 2.86031 21.5788 1.33389C26.5691 -0.192526 31.8676 -0.412988 36.9675 0.693592C40.7597 1.51645 44.3478 3.05261 47.5457 5.20782C49.3776 6.44245 49.5204 8.9956 48.0568 10.6503L47.4232 11.3667C45.9596 13.0214 43.4453 13.1382 41.5488 12.0053C39.5493 10.8108 37.3617 9.94385 35.0683 9.44623C31.466 8.6646 27.7234 8.82032 24.1985 9.89851C20.6736 10.9767 17.4843 12.9413 14.9356 15.6043C12.387 18.2674 10.5643 21.5398 9.64181 25.1087C8.71936 28.6775 8.72803 32.4233 9.667 35.9878C10.606 39.5524 12.4438 42.8163 15.0048 45.4676C17.5657 48.1188 20.7641 50.0686 24.2939 51.1304C26.5412 51.8065 28.8749 52.1082 31.2028 52.0322C33.4108 51.9602 35.5536 53.2808 36.032 55.4375L36.2391 56.3711Z"/>
</mask>
<path d="M36.2391 56.3711C36.7175 58.5278 35.3555 60.692 33.1547 60.8843C29.313 61.2199 25.4299 60.8249 21.7139 59.7071C16.7166 58.2038 12.1886 55.4434 8.56295 51.69C4.93735 47.9366 2.33545 43.3157 1.00613 38.2693C-0.323189 33.2229 -0.335464 27.9198 0.970482 22.8673C2.27643 17.8148 4.85691 13.1819 8.4651 9.41178C12.0733 5.64162 16.5885 2.86031 21.5788 1.33389C26.5691 -0.192526 31.8676 -0.412988 36.9675 0.693592C40.7597 1.51645 44.3478 3.05261 47.5457 5.20782C49.3776 6.44245 49.5204 8.9956 48.0568 10.6503L47.4232 11.3667C45.9596 13.0214 43.4453 13.1382 41.5488 12.0053C39.5493 10.8108 37.3617 9.94385 35.0683 9.44623C31.466 8.6646 27.7234 8.82032 24.1985 9.89851C20.6736 10.9767 17.4843 12.9413 14.9356 15.6043C12.387 18.2674 10.5643 21.5398 9.64181 25.1087C8.71936 28.6775 8.72803 32.4233 9.667 35.9878C10.606 39.5524 12.4438 42.8163 15.0048 45.4676C17.5657 48.1188 20.7641 50.0686 24.2939 51.1304C26.5412 51.8065 28.8749 52.1082 31.2028 52.0322C33.4108 51.9602 35.5536 53.2808 36.032 55.4375L36.2391 56.3711Z" fill="#E9BB58" stroke="white" stroke-width="2" mask="url(#path-1-inside-1_0_154)"/>
</svg>
