<svg width="61" height="61" viewBox="0 0 61 61" fill="none" xmlns="http://www.w3.org/2000/svg">
<mask id="path-1-inside-1_0_186" fill="white">
<path d="M36.2391 56.3711C36.7175 58.5278 35.3554 60.692 33.1546 60.8843C28.1141 61.3247 23.0206 60.5056 18.3419 58.472C12.4348 55.9044 7.49215 51.5327 4.22237 45.9834C0.952594 40.4341 -0.476459 33.9921 0.140027 27.5807C0.756514 21.1693 3.38689 15.1177 7.65416 10.2931C11.9214 5.46856 17.6065 2.11877 23.8946 0.72385C30.1827 -0.671067 36.751 -0.0394935 42.6581 2.52805C48.5652 5.0956 53.5079 9.4673 56.7776 15.0166C59.3675 19.4119 60.8025 24.3672 60.981 29.4238C61.059 31.6316 59.0773 33.2478 56.8783 33.0364L55.9264 32.9449C53.7274 32.7334 52.155 30.7679 51.9569 28.5677C51.672 25.4051 50.6899 22.3274 49.0612 19.5633C46.7516 15.6435 43.2604 12.5556 39.0879 10.742C34.9154 8.92842 30.2759 8.48231 25.8343 9.46761C21.3927 10.4529 17.377 12.819 14.3628 16.2269C11.3486 19.6347 9.49068 23.9093 9.05522 28.438C8.61977 32.9667 9.62918 37.517 11.9388 41.4367C14.2484 45.3565 17.7396 48.4444 21.9121 50.258C24.8545 51.5369 28.0291 52.1358 31.2028 52.0322C33.4107 51.9602 35.5536 53.2808 36.032 55.4375L36.2391 56.3711Z"/>
</mask>
<path d="M36.2391 56.3711C36.7175 58.5278 35.3554 60.692 33.1546 60.8843C28.1141 61.3247 23.0206 60.5056 18.3419 58.472C12.4348 55.9044 7.49215 51.5327 4.22237 45.9834C0.952594 40.4341 -0.476459 33.9921 0.140027 27.5807C0.756514 21.1693 3.38689 15.1177 7.65416 10.2931C11.9214 5.46856 17.6065 2.11877 23.8946 0.72385C30.1827 -0.671067 36.751 -0.0394935 42.6581 2.52805C48.5652 5.0956 53.5079 9.4673 56.7776 15.0166C59.3675 19.4119 60.8025 24.3672 60.981 29.4238C61.059 31.6316 59.0773 33.2478 56.8783 33.0364L55.9264 32.9449C53.7274 32.7334 52.155 30.7679 51.9569 28.5677C51.672 25.4051 50.6899 22.3274 49.0612 19.5633C46.7516 15.6435 43.2604 12.5556 39.0879 10.742C34.9154 8.92842 30.2759 8.48231 25.8343 9.46761C21.3927 10.4529 17.377 12.819 14.3628 16.2269C11.3486 19.6347 9.49068 23.9093 9.05522 28.438C8.61977 32.9667 9.62918 37.517 11.9388 41.4367C14.2484 45.3565 17.7396 48.4444 21.9121 50.258C24.8545 51.5369 28.0291 52.1358 31.2028 52.0322C33.4107 51.9602 35.5536 53.2808 36.032 55.4375L36.2391 56.3711Z" fill="#8ABE50" stroke="white" stroke-width="2" mask="url(#path-1-inside-1_0_186)"/>
</svg>
