<svg width="26" height="51" viewBox="0 0 26 51" fill="none" xmlns="http://www.w3.org/2000/svg">
<mask id="path-1-inside-1_0_155" fill="white">
<path d="M12.2383 1.41976C13.6522 -0.281658 16.2008 -0.530645 17.7027 1.09363C20.702 4.33724 22.9731 8.20538 24.341 12.4394C26.1211 17.9489 26.2984 23.851 24.8523 29.4575C23.4063 35.064 20.3963 40.144 16.1735 44.1053C12.9283 47.1494 9.06957 49.4365 4.87564 50.8248C2.77548 51.52 0.665252 50.0693 0.250675 47.8963L0.0712093 46.9556C-0.343368 44.7826 1.10405 42.719 3.1632 41.9104C5.69825 40.9149 8.03345 39.4438 10.0374 37.564C13.0202 34.7659 15.1463 31.1777 16.1677 27.2175C17.1892 23.2573 17.0639 19.0884 15.8066 15.1967C14.9618 12.5822 13.6295 10.1651 11.8922 8.06763C10.4811 6.36392 10.2123 3.85771 11.6262 2.15629L12.2383 1.41976Z"/>
</mask>
<path d="M12.2383 1.41976C13.6522 -0.281658 16.2008 -0.530645 17.7027 1.09363C20.702 4.33724 22.9731 8.20538 24.341 12.4394C26.1211 17.9489 26.2984 23.851 24.8523 29.4575C23.4063 35.064 20.3963 40.144 16.1735 44.1053C12.9283 47.1494 9.06957 49.4365 4.87564 50.8248C2.77548 51.52 0.665252 50.0693 0.250675 47.8963L0.0712093 46.9556C-0.343368 44.7826 1.10405 42.719 3.1632 41.9104C5.69825 40.9149 8.03345 39.4438 10.0374 37.564C13.0202 34.7659 15.1463 31.1777 16.1677 27.2175C17.1892 23.2573 17.0639 19.0884 15.8066 15.1967C14.9618 12.5822 13.6295 10.1651 11.8922 8.06763C10.4811 6.36392 10.2123 3.85771 11.6262 2.15629L12.2383 1.41976Z" fill="#E6DECF" stroke="white" stroke-width="2" mask="url(#path-1-inside-1_0_155)"/>
</svg>
