<svg width="61" height="60" viewBox="0 0 61 60" fill="none" xmlns="http://www.w3.org/2000/svg">
<mask id="path-1-inside-1_0_123" fill="white">
<path d="M23.8587 56.1543C23.305 58.2929 21.1084 59.6021 19.0605 58.7735C13.7214 56.6133 9.07547 52.9731 5.693 48.2444C1.53083 42.4256 -0.453425 35.3288 0.0872146 28.1951C0.627854 21.0614 3.65898 14.3448 8.65055 9.2197C13.6421 4.09463 20.2764 0.887321 27.3934 0.158626C34.5103 -0.570069 41.657 1.22623 47.5836 5.2334C53.5102 9.24057 57.8396 15.2036 59.8146 22.0797C61.7897 28.9558 61.2848 36.3074 58.3882 42.849C56.0342 48.1651 52.2224 52.6712 47.4319 55.8686C45.5944 57.095 43.178 56.2582 42.2024 54.2761L41.7801 53.4181C40.8046 51.436 41.6507 49.0654 43.4186 47.7407C46.3531 45.5418 48.6964 42.6158 50.1989 39.2227C52.2449 34.6021 52.6015 29.4093 51.2064 24.5523C49.8113 19.6954 46.7533 15.4834 42.567 12.6529C38.3807 9.82246 33.3327 8.55365 28.3056 9.06836C23.2786 9.58307 18.5924 11.8486 15.0666 15.4686C11.5408 19.0887 9.3998 23.833 9.01792 28.8719C8.63604 33.9108 10.0376 38.9236 12.9776 43.0337C15.1365 46.052 18.0242 48.4424 21.3433 50.001C23.343 50.9399 24.652 53.0899 24.0983 55.2285L23.8587 56.1543Z"/>
</mask>
<path d="M23.8587 56.1543C23.305 58.2929 21.1084 59.6021 19.0605 58.7735C13.7214 56.6133 9.07547 52.9731 5.693 48.2444C1.53083 42.4256 -0.453425 35.3288 0.0872146 28.1951C0.627854 21.0614 3.65898 14.3448 8.65055 9.2197C13.6421 4.09463 20.2764 0.887321 27.3934 0.158626C34.5103 -0.570069 41.657 1.22623 47.5836 5.2334C53.5102 9.24057 57.8396 15.2036 59.8146 22.0797C61.7897 28.9558 61.2848 36.3074 58.3882 42.849C56.0342 48.1651 52.2224 52.6712 47.4319 55.8686C45.5944 57.095 43.178 56.2582 42.2024 54.2761L41.7801 53.4181C40.8046 51.436 41.6507 49.0654 43.4186 47.7407C46.3531 45.5418 48.6964 42.6158 50.1989 39.2227C52.2449 34.6021 52.6015 29.4093 51.2064 24.5523C49.8113 19.6954 46.7533 15.4834 42.567 12.6529C38.3807 9.82246 33.3327 8.55365 28.3056 9.06836C23.2786 9.58307 18.5924 11.8486 15.0666 15.4686C11.5408 19.0887 9.3998 23.833 9.01792 28.8719C8.63604 33.9108 10.0376 38.9236 12.9776 43.0337C15.1365 46.052 18.0242 48.4424 21.3433 50.001C23.343 50.9399 24.652 53.0899 24.0983 55.2285L23.8587 56.1543Z" fill="#E6D6CF" stroke="white" stroke-width="2" mask="url(#path-1-inside-1_0_123)"/>
</svg>
