<svg width="21" height="11" viewBox="0 0 21 11" fill="none" xmlns="http://www.w3.org/2000/svg">
<mask id="path-1-inside-1_0_122" fill="white">
<path d="M20.5176 3.07637C21.5755 5.03708 20.8497 7.51184 18.7675 8.30425C13.7271 10.2224 8.26797 10.7817 2.94338 9.9252C0.743765 9.5714 -0.468711 7.29518 0.169683 5.16072L0.446036 4.23673C1.08443 2.10226 3.33611 0.930212 5.55174 1.16356C8.54408 1.47872 11.5706 1.16869 14.4369 0.253407C16.5592 -0.424306 19.0018 0.266887 20.0596 2.2276L20.5176 3.07637Z"/>
</mask>
<path d="M20.5176 3.07637C21.5755 5.03708 20.8497 7.51184 18.7675 8.30425C13.7271 10.2224 8.26797 10.7817 2.94338 9.9252C0.743765 9.5714 -0.468711 7.29518 0.169683 5.16072L0.446036 4.23673C1.08443 2.10226 3.33611 0.930212 5.55174 1.16356C8.54408 1.47872 11.5706 1.16869 14.4369 0.253407C16.5592 -0.424306 19.0018 0.266887 20.0596 2.2276L20.5176 3.07637Z" fill="#E97A58" stroke="white" stroke-width="2" mask="url(#path-1-inside-1_0_122)"/>
</svg>
