<svg width="26" height="51" viewBox="0 0 26 51" fill="none" xmlns="http://www.w3.org/2000/svg">
<mask id="path-1-inside-1_9_3002" fill="white">
<path d="M12.2382 1.41952C13.6521 -0.281902 16.2007 -0.53089 17.7026 1.09338C20.7018 4.33699 22.973 8.20514 24.3409 12.4391C26.121 17.9487 26.2983 23.8508 24.8522 29.4573C23.4061 35.0638 20.3962 40.1438 16.1734 44.105C12.9282 47.1492 9.06945 49.4362 4.87551 50.8245C2.77536 51.5197 0.66513 50.0691 0.250552 47.896L0.0710871 46.9554C-0.34349 44.7823 1.10393 42.7188 3.16308 41.9101C5.69813 40.9146 8.03333 39.4435 10.0373 37.5637C13.0201 34.7657 15.1462 31.1774 16.1676 27.2173C17.189 23.2571 17.0638 19.0882 15.8064 15.1965C14.9617 12.5819 13.6294 10.1649 11.8921 8.06739C10.481 6.36367 10.2122 3.85746 11.6261 2.15604L12.2382 1.41952Z"/>
</mask>
<path d="M12.2382 1.41952C13.6521 -0.281902 16.2007 -0.53089 17.7026 1.09338C20.7018 4.33699 22.973 8.20514 24.3409 12.4391C26.121 17.9487 26.2983 23.8508 24.8522 29.4573C23.4061 35.0638 20.3962 40.1438 16.1734 44.105C12.9282 47.1492 9.06945 49.4362 4.87551 50.8245C2.77536 51.5197 0.66513 50.0691 0.250552 47.896L0.0710871 46.9554C-0.34349 44.7823 1.10393 42.7188 3.16308 41.9101C5.69813 40.9146 8.03333 39.4435 10.0373 37.5637C13.0201 34.7657 15.1462 31.1774 16.1676 27.2173C17.189 23.2571 17.0638 19.0882 15.8064 15.1965C14.9617 12.5819 13.6294 10.1649 11.8921 8.06739C10.481 6.36367 10.2122 3.85746 11.6261 2.15604L12.2382 1.41952Z" fill="#E6DECF" stroke="white" stroke-width="2" mask="url(#path-1-inside-1_9_3002)"/>
</svg>
