<svg width="40" height="40" viewBox="0 0 40 40" fill="none" xmlns="http://www.w3.org/2000/svg">
<rect width="40" height="40" rx="8" fill="#A9DD6F"/>
<path d="M20.9175 12.1521C20.9175 11.6914 21.127 11.2787 21.4265 10.9774C21.7268 10.6761 22.137 10.4902 22.5943 10.4902C23.0515 10.4902 23.4609 10.6769 23.7604 10.9782C24.0607 11.2803 24.2408 11.6914 24.2408 12.1521C24.2408 12.612 24.0799 13.0431 23.7796 13.3452C23.48 13.6481 23.0507 13.8324 22.5935 13.8324C22.1354 13.8324 21.7435 13.6096 21.4432 13.3083C21.1437 13.0071 20.9175 12.612 20.9175 12.1521Z" fill="#8ABE50"/>
<path d="M28.7344 17.3691C28.7344 16.9091 28.9439 16.4965 29.2434 16.1952C29.5429 15.8931 29.9531 15.708 30.4112 15.708C30.8684 15.708 31.2778 15.8947 31.5773 16.196C31.8776 16.4973 32.0577 16.9091 32.0577 17.3691C32.0577 17.8298 31.8968 18.2601 31.5964 18.563C31.2969 18.8659 30.8676 19.0502 30.4104 19.0502C29.9523 19.0502 29.5604 18.8274 29.2601 18.5261C28.9606 18.2248 28.7344 17.8298 28.7344 17.3691Z" fill="#8ABE50"/>
<path d="M23.4111 29.3028C23.4111 29.0728 23.5155 28.8661 23.6652 28.7154C23.815 28.5648 24.0205 28.4727 24.2491 28.4727C24.4777 28.4727 24.6817 28.5656 24.8314 28.7162C24.9812 28.8669 25.0712 29.0728 25.0712 29.3028C25.0712 29.5328 24.9907 29.7475 24.841 29.8989C24.6912 30.0504 24.4769 30.1417 24.2483 30.1417C24.0197 30.1417 23.8238 30.0312 23.674 29.8805C23.5242 29.7299 23.4111 29.5328 23.4111 29.3028Z" fill="#8ABE50"/>
<path d="M17.0176 30.7697L18.2003 19.7922C18.4845 17.1541 20.7113 15.1543 23.3646 15.1543L27.8764 23.6928L28.0332 22.21C28.1614 20.9976 29.2034 20.0774 30.4226 20.0774C31.7965 20.0774 32.899 21.2535 32.7815 22.6224L32.5008 25.8935C32.2641 28.6515 29.9563 30.7697 27.1882 30.7697L22.6705 22.3081L22.2667 26.0558C21.9778 28.7371 19.7144 30.7697 17.0176 30.7697Z" fill="#4D7323"/>
<path d="M23.0185 19.0774L23.3645 15.1543L27.8763 23.6928L27.1881 30.7697L22.6704 22.3081L23.0185 19.0774Z" fill="#8ABE50"/>
<path d="M7.29059 28.3875L8.93138 13.6361C9.22497 10.9967 11.4561 9 14.1118 9L18.0882 20.8462L17.0176 30.7692L13.0011 19.3077L11.9675 28.8996C11.8388 30.0943 10.8303 31 9.62861 31C8.22642 31 7.13558 29.7811 7.29059 28.3875Z" fill="#4D7323"/>
<path d="M18.0881 20.8462L14.1117 9L13.001 19.3077L17.0176 30.7692L18.0881 20.8462Z" fill="#8ABE50"/>
</svg>
