<svg width="11" height="15" viewBox="0 0 11 15" fill="none" xmlns="http://www.w3.org/2000/svg">
<path d="M2.51629 5.47213C2.82863 4.09236 2.93486 2.79921 2.70045 1.47463C2.59402 0.873237 2.48442 0.177592 3.32305 0.020395C4.07672 -0.120868 4.22944 0.503239 4.40454 1.04993C4.86527 2.48835 5.60245 3.68763 7.0466 4.23627C7.76073 4.50755 8.46968 4.71061 9.23112 4.28262C9.71582 4.0102 10.3439 3.93842 10.6763 4.5955C10.9487 5.13391 10.5639 5.49249 10.1842 5.79474C9.18594 6.58937 8.9949 7.79308 8.9521 8.95121C8.89602 10.4694 8.90825 12.0158 9.49224 13.4864C9.71399 14.0448 9.79359 14.6729 9.12104 14.9333C8.46914 15.1856 8.20612 14.6763 7.88432 14.1404C6.74453 12.2423 5.50276 10.4422 3.02643 10.3858C2.46402 10.373 1.94105 10.4948 1.40984 10.6243C0.955016 10.7353 0.462685 10.8891 0.151521 10.3629C-0.167331 9.82368 0.0612792 9.34381 0.431748 8.9426C1.33708 7.96215 2.14392 6.92009 2.51629 5.47213Z" fill="#F1C66A"/>
</svg>
