<svg width="224" height="44" viewBox="0 0 224 44" fill="none" xmlns="http://www.w3.org/2000/svg">
<rect width="224" height="44" rx="22" fill="#B5ED76"/>
<rect x="0.5" y="0.5" width="223" height="43" rx="21.5" stroke="url(#paint0_linear_0_197)" stroke-opacity="0.5"/>
<path d="M71.528 15.788L67.4 21.548L71.672 27.5H69.56L66.344 22.94L63.144 27.5H61.16L65.416 21.564L61.288 15.788H63.4L66.472 20.188L69.544 15.788H71.528ZM75.9696 19.004C76.695 19.004 77.3296 19.1747 77.8736 19.516C78.4176 19.8467 78.839 20.3053 79.1376 20.892C79.4363 21.468 79.5856 22.1187 79.5856 22.844C79.5856 23.0893 79.559 23.3827 79.5056 23.724H73.6816C73.7456 24.556 74.0016 25.1853 74.4496 25.612C74.8976 26.028 75.4576 26.236 76.1296 26.236C77.0043 26.236 77.639 25.8733 78.0336 25.148L79.2656 25.868C79.0523 26.444 78.647 26.892 78.0496 27.212C77.4523 27.5213 76.7856 27.676 76.0496 27.676C75.2923 27.676 74.6043 27.5107 73.9856 27.18C73.367 26.8387 72.871 26.3373 72.4976 25.676C72.135 25.0147 71.9536 24.2253 71.9536 23.308C71.9536 22.412 72.135 21.6387 72.4976 20.988C72.871 20.3373 73.3616 19.8467 73.9696 19.516C74.5883 19.1747 75.255 19.004 75.9696 19.004ZM75.9056 20.444C75.3616 20.444 74.887 20.62 74.4816 20.972C74.087 21.3133 73.8363 21.8147 73.7296 22.476H77.8576C77.815 21.836 77.6176 21.34 77.2656 20.988C76.9136 20.6253 76.4603 20.444 75.9056 20.444ZM90.1105 19.004C90.8998 19.004 91.5398 19.2973 92.0305 19.884C92.5318 20.46 92.7825 21.292 92.7825 22.38V27.5H91.1825V22.924C91.1825 22.1667 91.0545 21.58 90.7985 21.164C90.5425 20.7373 90.1585 20.524 89.6465 20.524C89.1238 20.524 88.6865 20.7373 88.3345 21.164C87.9932 21.58 87.8225 22.1773 87.8225 22.956V27.5H86.2065V22.924C86.2065 22.156 86.0785 21.564 85.8225 21.148C85.5772 20.732 85.1985 20.524 84.6865 20.524C84.1638 20.524 83.7265 20.7373 83.3745 21.164C83.0332 21.5907 82.8625 22.188 82.8625 22.956V27.5H81.2305V19.196H82.6705C82.6812 19.5373 82.7078 19.9533 82.7505 20.444C83.0278 19.964 83.3745 19.6067 83.7905 19.372C84.2065 19.1267 84.6652 19.004 85.1665 19.004C85.7212 19.004 86.2065 19.1533 86.6225 19.452C87.0492 19.74 87.3638 20.1667 87.5665 20.732C87.8332 20.156 88.1852 19.724 88.6225 19.436C89.0705 19.148 89.5665 19.004 90.1105 19.004ZM106.797 16.748H107.997V18.044H106.797V27.5H105.357C105.303 26.7747 105.266 26.3213 105.245 26.14C104.946 26.652 104.551 27.036 104.061 27.292C103.581 27.548 103.069 27.676 102.525 27.676C101.874 27.676 101.266 27.5053 100.701 27.164C100.135 26.8227 99.682 26.3267 99.3406 25.676C98.9993 25.0147 98.8286 24.236 98.8286 23.34C98.8286 22.4547 98.9993 21.6867 99.3406 21.036C99.682 20.3747 100.135 19.8733 100.701 19.532C101.266 19.18 101.874 19.004 102.525 19.004C103.047 19.004 103.538 19.1213 103.997 19.356C104.466 19.5907 104.855 19.9373 105.165 20.396V18.044H103.021V16.748H105.165V15.324H106.797V16.748ZM102.797 26.204C103.447 26.204 104.002 25.9693 104.461 25.5C104.93 25.0307 105.165 24.3107 105.165 23.34C105.165 22.38 104.93 21.6707 104.461 21.212C104.002 20.7533 103.447 20.524 102.797 20.524C102.114 20.524 101.565 20.7693 101.149 21.26C100.743 21.7507 100.541 22.444 100.541 23.34C100.541 24.2467 100.743 24.9507 101.149 25.452C101.565 25.9533 102.114 26.204 102.797 26.204ZM112.961 15.548H114.705L112.977 18.076H111.601L112.961 15.548ZM112.433 19.004C113.425 19.004 114.225 19.2973 114.833 19.884C115.451 20.4707 115.761 21.3133 115.761 22.412V27.5H114.337C114.315 27.02 114.289 26.6787 114.257 26.476C113.745 27.276 112.923 27.676 111.793 27.676C111.238 27.676 110.726 27.5747 110.257 27.372C109.798 27.1693 109.43 26.876 109.153 26.492C108.875 26.108 108.737 25.644 108.737 25.1C108.737 24.2787 109.073 23.628 109.745 23.148C110.417 22.668 111.275 22.428 112.321 22.428C112.907 22.428 113.51 22.508 114.129 22.668V22.636C114.129 21.8787 113.979 21.324 113.681 20.972C113.382 20.6093 112.934 20.428 112.337 20.428C111.857 20.428 111.451 20.5347 111.121 20.748C110.801 20.9507 110.529 21.2493 110.305 21.644L109.089 20.94C109.355 20.3533 109.787 19.884 110.385 19.532C110.982 19.18 111.665 19.004 112.433 19.004ZM114.129 23.916C113.489 23.756 112.929 23.676 112.449 23.676C111.809 23.676 111.313 23.7987 110.961 24.044C110.609 24.2893 110.433 24.6307 110.433 25.068C110.433 25.4627 110.577 25.7773 110.865 26.012C111.153 26.236 111.531 26.348 112.001 26.348C112.587 26.348 113.089 26.1827 113.505 25.852C113.921 25.5107 114.129 25.0413 114.129 24.444V23.916ZM122.221 19.004C123.117 19.004 123.832 19.2973 124.365 19.884C124.898 20.4707 125.165 21.3187 125.165 22.428V27.5H123.517V22.924C123.517 22.156 123.373 21.564 123.085 21.148C122.797 20.732 122.36 20.524 121.773 20.524C121.176 20.524 120.664 20.7373 120.237 21.164C119.821 21.58 119.613 22.1773 119.613 22.956V27.5H117.965V19.196H119.421C119.442 19.7187 119.474 20.172 119.517 20.556C119.794 20.044 120.162 19.66 120.621 19.404C121.09 19.1373 121.624 19.004 122.221 19.004ZM131.627 19.004C132.512 19.004 133.222 19.3027 133.755 19.9C134.299 20.4867 134.571 21.3293 134.571 22.428V27.5H132.923V22.924C132.923 22.156 132.779 21.564 132.491 21.148C132.203 20.732 131.766 20.524 131.179 20.524C130.582 20.524 130.07 20.7373 129.643 21.164C129.227 21.58 129.019 22.1773 129.019 22.956V27.5H127.371V15.324H129.019V20.396C129.296 19.9373 129.659 19.5907 130.107 19.356C130.566 19.1213 131.072 19.004 131.627 19.004ZM148.578 19.196V26.86C148.578 28.492 148.178 29.6547 147.378 30.348C146.589 31.052 145.639 31.404 144.53 31.404C143.677 31.404 142.919 31.2227 142.258 30.86C141.607 30.4973 141.159 29.9907 140.914 29.34L142.21 28.588C142.626 29.4627 143.399 29.9 144.53 29.9C145.309 29.9 145.906 29.66 146.322 29.18C146.738 28.7107 146.946 27.9107 146.946 26.78L146.994 26.22C146.695 26.7107 146.311 27.0787 145.842 27.324C145.383 27.5587 144.882 27.676 144.338 27.676C143.687 27.676 143.074 27.5053 142.498 27.164C141.933 26.812 141.474 26.3107 141.122 25.66C140.781 24.9987 140.61 24.2253 140.61 23.34C140.61 22.444 140.781 21.6707 141.122 21.02C141.474 20.3587 141.933 19.8573 142.498 19.516C143.074 19.1747 143.687 19.004 144.338 19.004C144.882 19.004 145.394 19.132 145.874 19.388C146.354 19.644 146.738 20.028 147.026 20.54C147.09 19.9213 147.127 19.4733 147.138 19.196H148.578ZM144.578 26.204C145.229 26.204 145.783 25.9693 146.242 25.5C146.711 25.0307 146.946 24.3107 146.946 23.34C146.946 22.38 146.711 21.6707 146.242 21.212C145.783 20.7533 145.229 20.524 144.578 20.524C143.895 20.524 143.346 20.7693 142.93 21.26C142.525 21.7507 142.322 22.444 142.322 23.34C142.322 24.2467 142.525 24.9507 142.93 25.452C143.346 25.9533 143.895 26.204 144.578 26.204ZM151.718 17.852C151.441 17.852 151.201 17.7453 150.998 17.532C150.796 17.3187 150.694 17.068 150.694 16.78C150.694 16.492 150.796 16.2467 150.998 16.044C151.201 15.8307 151.441 15.724 151.718 15.724C152.017 15.724 152.268 15.8307 152.47 16.044C152.673 16.2467 152.774 16.492 152.774 16.78C152.774 17.068 152.668 17.3187 152.454 17.532C152.252 17.7453 152.006 17.852 151.718 17.852ZM152.55 27.5H150.902V19.196H152.55V27.5ZM158.726 15.548H160.47L158.742 18.076H157.366L158.726 15.548ZM158.198 19.004C159.19 19.004 159.99 19.2973 160.598 19.884C161.217 20.4707 161.526 21.3133 161.526 22.412V27.5H160.102C160.081 27.02 160.054 26.6787 160.022 26.476C159.51 27.276 158.689 27.676 157.558 27.676C157.004 27.676 156.492 27.5747 156.022 27.372C155.564 27.1693 155.196 26.876 154.918 26.492C154.641 26.108 154.502 25.644 154.502 25.1C154.502 24.2787 154.838 23.628 155.51 23.148C156.182 22.668 157.041 22.428 158.086 22.428C158.673 22.428 159.276 22.508 159.894 22.668V22.636C159.894 21.8787 159.745 21.324 159.446 20.972C159.148 20.6093 158.7 20.428 158.102 20.428C157.622 20.428 157.217 20.5347 156.886 20.748C156.566 20.9507 156.294 21.2493 156.07 21.644L154.854 20.94C155.121 20.3533 155.553 19.884 156.15 19.532C156.748 19.18 157.43 19.004 158.198 19.004ZM159.894 23.916C159.254 23.756 158.694 23.676 158.214 23.676C157.574 23.676 157.078 23.7987 156.726 24.044C156.374 24.2893 156.198 24.6307 156.198 25.068C156.198 25.4627 156.342 25.7773 156.63 26.012C156.918 26.236 157.297 26.348 157.766 26.348C158.353 26.348 158.854 26.1827 159.27 25.852C159.686 25.5107 159.894 25.0413 159.894 24.444V23.916Z" fill="#2F3C30"/>
<defs>
<linearGradient id="paint0_linear_0_197" x1="112" y1="0" x2="112" y2="44" gradientUnits="userSpaceOnUse">
<stop stop-color="white"/>
<stop offset="1" stop-color="white" stop-opacity="0"/>
</linearGradient>
</defs>
</svg>
