<svg width="24" height="24" viewBox="0 0 24 24" fill="none" xmlns="http://www.w3.org/2000/svg">
<g clip-path="url(#clip0_0_192)">
<path d="M20 9.00041C20.2652 9.00041 20.5196 9.10576 20.7071 9.2933C20.8946 9.48084 21 9.73519 21 10.0004V11.0004C21 13.1221 20.1571 15.157 18.6569 16.6573C17.1566 18.1576 15.1217 19.0004 13 19.0004H9.414L10.207 19.7934C10.3892 19.982 10.49 20.2346 10.4877 20.4968C10.4854 20.759 10.3802 21.0098 10.1948 21.1952C10.0094 21.3806 9.7586 21.4858 9.4964 21.4881C9.2342 21.4904 8.9816 21.3896 8.793 21.2074L6.297 18.7114C6.14205 18.5588 6.04126 18.3597 6.01 18.1444L6 17.9914C6.00163 17.7575 6.08554 17.5316 6.237 17.3534L6.293 17.2934L8.793 14.7934C8.9816 14.6112 9.2342 14.5105 9.4964 14.5127C9.7586 14.515 10.0094 14.6202 10.1948 14.8056C10.3802 14.991 10.4854 15.2418 10.4877 15.504C10.49 15.7662 10.3892 16.0188 10.207 16.2074L9.414 17.0004H13C14.5913 17.0004 16.1174 16.3683 17.2426 15.243C18.3679 14.1178 19 12.5917 19 11.0004V10.0004C19 9.73519 19.1054 9.48084 19.2929 9.2933C19.4804 9.10576 19.7348 9.00041 20 9.00041ZM15.207 2.79341L17.707 5.29341C17.8945 5.48094 17.9998 5.73524 17.9998 6.00041C17.9998 6.26557 17.8945 6.51988 17.707 6.70741L15.207 9.20741C15.1148 9.30292 15.0044 9.3791 14.8824 9.43151C14.7604 9.48392 14.6292 9.5115 14.4964 9.51266C14.3636 9.51381 14.2319 9.48851 14.109 9.43823C13.9861 9.38795 13.8745 9.31369 13.7806 9.2198C13.6867 9.12591 13.6125 9.01426 13.5622 8.89136C13.5119 8.76847 13.4866 8.63679 13.4877 8.50401C13.4889 8.37123 13.5165 8.24001 13.5689 8.118C13.6213 7.996 13.6975 7.88565 13.793 7.79341L14.586 7.00041H11C9.4087 7.00041 7.88258 7.63255 6.75736 8.75777C5.63214 9.88299 5 11.4091 5 13.0004V14.0004C5 14.2656 4.89464 14.52 4.70711 14.7075C4.51957 14.8951 4.26522 15.0004 4 15.0004C3.73478 15.0004 3.48043 14.8951 3.29289 14.7075C3.10536 14.52 3 14.2656 3 14.0004V13.0004C3 10.8787 3.84285 8.84384 5.34315 7.34355C6.84344 5.84326 8.87827 5.00041 11 5.00041H14.586L13.793 4.20741C13.6108 4.0188 13.51 3.7662 13.5123 3.50401C13.5146 3.24181 13.6198 2.991 13.8052 2.80559C13.9906 2.62018 14.2414 2.51501 14.5036 2.51273C14.7658 2.51045 15.0184 2.61125 15.207 2.79341Z" fill="#2F3C30"/>
</g>
<defs>
<clipPath id="clip0_0_192">
<rect width="24" height="24" fill="white"/>
</clipPath>
</defs>
</svg>
