<svg width="16" height="16" viewBox="0 0 16 16" fill="none" xmlns="http://www.w3.org/2000/svg">
<g clip-path="url(#clip0_0_174)">
<path d="M8.00016 1.33301C8.5975 1.33301 9.17616 1.41167 9.72683 1.55901L8.3095 2.97567C8.20197 3.08363 8.10713 3.20352 8.02683 3.33301H8.00016C7.07718 3.33301 6.17493 3.6067 5.4075 4.11948C4.64007 4.63226 4.04193 5.3611 3.68872 6.21382C3.33552 7.06654 3.2431 8.00485 3.42316 8.9101C3.60323 9.81534 4.04769 10.6469 4.70033 11.2995C5.35298 11.9522 6.1845 12.3966 7.08974 12.5767C7.99499 12.7567 8.9333 12.6643 9.78602 12.3111C10.6387 11.9579 11.3676 11.3598 11.8804 10.5923C12.3931 9.82491 12.6668 8.92265 12.6668 7.99967V7.97301C12.7948 7.89301 12.9148 7.79901 13.0235 7.68967L14.4408 6.27301C14.5882 6.82367 14.6668 7.40234 14.6668 7.99967C14.6668 11.6817 11.6822 14.6663 8.00016 14.6663C4.31816 14.6663 1.3335 11.6817 1.3335 7.99967C1.3335 4.31767 4.31816 1.33301 8.00016 1.33301ZM7.72416 4.67767C7.72416 5.24501 7.69616 5.82034 7.72683 6.38701L7.36683 6.74701C7.24299 6.87084 7.14476 7.01786 7.07774 7.17966C7.01072 7.34146 6.97623 7.51488 6.97623 7.69001C6.97623 7.86514 7.01072 8.03856 7.07774 8.20036C7.14476 8.36216 7.24299 8.50917 7.36683 8.63301C7.49067 8.75684 7.63768 8.85508 7.79948 8.9221C7.96128 8.98912 8.1347 9.02361 8.30983 9.02361C8.48496 9.02361 8.65838 8.98912 8.82018 8.9221C8.98198 8.85508 9.12899 8.75684 9.25283 8.63301L9.61283 8.27301C10.1795 8.30367 10.7542 8.27567 11.3222 8.27567C11.2695 8.90923 11.0368 9.51452 10.6514 10.0201C10.266 10.5258 9.74407 10.9106 9.14714 11.1294C8.55021 11.3481 7.90317 11.3916 7.28235 11.2547C6.66152 11.1177 6.0928 10.8061 5.64326 10.3566C5.19372 9.90703 4.88211 9.33831 4.74519 8.71749C4.60826 8.09666 4.65172 7.44963 4.87045 6.8527C5.08919 6.25577 5.47406 5.73383 5.97969 5.34846C6.48531 4.96308 7.0906 4.73034 7.72416 4.67767ZM12.3362 1.41767C12.4578 1.46813 12.5619 1.5535 12.6351 1.66301C12.7083 1.77253 12.7474 1.90128 12.7475 2.03301V3.25301H13.9668C14.0987 3.25304 14.2275 3.29215 14.3371 3.36541C14.4467 3.43866 14.5322 3.54277 14.5826 3.66457C14.6331 3.78637 14.6463 3.92039 14.6206 4.0497C14.5948 4.179 14.5314 4.29777 14.4382 4.39101L12.0802 6.74634C11.9552 6.87137 11.7856 6.94164 11.6088 6.94167H10.0002L8.7815 8.16101C8.6564 8.2861 8.48674 8.35638 8.30983 8.35638C8.13292 8.35638 7.96326 8.2861 7.83816 8.16101C7.71307 8.03591 7.64279 7.86625 7.64279 7.68934C7.64279 7.51243 7.71307 7.34277 7.83816 7.21767L9.0575 5.99967V4.39034C9.05743 4.30269 9.07464 4.21588 9.10816 4.13489C9.14168 4.0539 9.19084 3.98031 9.25283 3.91834L11.6095 1.56167C11.7027 1.46839 11.8215 1.40485 11.9509 1.3791C12.0802 1.35334 12.2143 1.36654 12.3362 1.41701" fill="#607362"/>
</g>
<defs>
<clipPath id="clip0_0_174">
<rect width="16" height="16" fill="white"/>
</clipPath>
</defs>
</svg>
