<svg width="16" height="16" viewBox="0 0 16 16" fill="none" xmlns="http://www.w3.org/2000/svg">
<g clip-path="url(#clip0_0_180)">
<path d="M8.00016 1.33301C11.6822 1.33301 14.6668 4.31767 14.6668 7.99967C14.6668 11.6817 11.6822 14.6663 8.00016 14.6663C4.31816 14.6663 1.3335 11.6817 1.3335 7.99967C1.3335 4.31767 4.31816 1.33301 8.00016 1.33301ZM8.00016 3.99967C7.82335 3.99967 7.65378 4.06991 7.52876 4.19494C7.40373 4.31996 7.3335 4.48953 7.3335 4.66634V7.99967C7.33353 8.17647 7.4038 8.34601 7.52883 8.47101L9.52883 10.471C9.65456 10.5924 9.82296 10.6596 9.99776 10.6581C10.1726 10.6566 10.3398 10.5865 10.4634 10.4629C10.587 10.3393 10.6571 10.1721 10.6586 9.99727C10.6601 9.82248 10.5929 9.65408 10.4715 9.52834L8.66683 7.72367V4.66634C8.66683 4.48953 8.59659 4.31996 8.47157 4.19494C8.34654 4.06991 8.17697 3.99967 8.00016 3.99967Z" fill="#607362"/>
</g>
<defs>
<clipPath id="clip0_0_180">
<rect width="16" height="16" fill="white"/>
</clipPath>
</defs>
</svg>
