<svg width="205" height="145" viewBox="0 0 205 145" fill="none" xmlns="http://www.w3.org/2000/svg">
<path d="M195.971 9.26833C185.91 8.93651 175.572 8.81539 165.557 9.81575C156.587 10.7117 151.265 12.0791 142.667 14.9441C132.157 18.4458 121.042 22.3839 111.211 27.5746C104.704 31.0108 102.852 38.5914 106.049 44.9633C114.324 61.4587 128.312 74.4266 136.885 90.7394C139.28 95.2963 141.312 100.067 143.351 104.79C144.962 108.521 147.697 113.261 147.312 117.487C146.278 128.837 133.47 133.902 123.854 134.932C112.809 136.115 101.562 135.28 90.5686 134.011C71.9782 131.866 53.4874 128.521 35.0156 125.547C26.2782 124.14 17.4971 122.807 9.03111 120.168" stroke="#D6E6C2" stroke-width="18" stroke-linecap="round"/>
</svg>
