<svg width="84" height="151" viewBox="0 0 84 151" fill="none" xmlns="http://www.w3.org/2000/svg">
<path d="M74.4914 9.06173C64.7324 13.1346 55.1823 18.6542 45.7177 23.6831C40.2405 26.5935 34.7459 29.4491 29.2989 32.456C25.665 34.4619 16.992 38.8799 13.0426 43.0119C11.4623 44.6653 9.05976 49.2503 9.05976 52.1414C9.05976 53.827 12.512 54.8353 13.3677 55.3153C20.3593 59.2378 27.6886 61.6463 35.0969 63.7672C44.7686 66.5361 56.1252 68.3117 64.6563 75.4287C67.1926 77.5445 69.218 80.6532 68.9101 84.8078C67.9801 97.355 63.0643 110.683 54.8213 117.403C44.4784 125.834 32.7938 130.953 21.7939 137.623C19.0947 139.26 16.3394 140.706 13.5302 141.938" stroke="#EDE6C3" stroke-width="18" stroke-linecap="round"/>
</svg>
